<?xml version="1.0" encoding="UTF-8"?> <svg xmlns="http://www.w3.org/2000/svg" viewBox="0 0 1517.94 636.11"><defs><style>.cls-1{fill:#a61615;fill-rule:evenodd;}.cls-2{fill:#444;}</style></defs><title>crest-realty-logo</title><g id="Vector"><path class="cls-1" d="M812.66,196.15H438.12c-.24-2,1.58-2.62,2.58-3.62Q531.33,101.81,622,11.14c2.43-2.44,3.75-3.11,6.6-.24,29.17,29.4,58.77,58.36,87.68,88,11.42,11.72,22.58,23.72,34.49,34.93,20.52,19.33,39.92,39.78,60.05,59.48C811.56,194,812.88,194.45,812.66,196.15Z"></path><path class="cls-1" d="M981.86,196.42H976q-60.94,0-121.9.05a9.59,9.59,0,0,1-7.53-3Q803,149.74,759.24,106.36c-3.56-3.5-3.29-4.79.08-8.09q29.55-28.89,58.53-58.37c2.86-2.9,4.54-3.37,7.63-.27q76.46,76.72,153.08,153.25C979.43,193.75,980.24,194.68,981.86,196.42Z"></path><path class="cls-1" d="M1130.42,196.42h-81.67c-10.71,0-21.42-.06-32.14.05a8,8,0,0,1-6.34-2.44c-12.76-12.9-25.55-25.76-38.51-38.46-2.19-2.16-1.78-3,.19-4.92q26.52-26.16,52.73-52.61c2.62-2.65,3.89-3.17,6.83-.16,15.31,15.7,30.53,31.53,46.54,46.5,16.84,15.76,32.64,32.54,49.26,48.5C1128.18,193.72,1128.92,194.71,1130.42,196.42Z"></path><path class="cls-2" d="M321.53,259.06v74.61h-8.61a79.33,79.33,0,0,0-36.17-44.77q-26.46-15.56-60-15.56-28,0-51.39,11.59t-34.19,30.33q-13.89,24-13.9,53.34,0,28.89,10.15,52.62t31.76,35.88q21.62,12.15,56,12.15,28.23,0,51.73-8.89t49.51-30.64v18.57q-25.14,18.9-52.38,27.39t-63.63,8.49q-47.87,0-85-13.81T58.06,430.67Q37.89,404.8,37.88,375.58q0-30.79,22.39-58.42T120.7,274.3a215.38,215.38,0,0,1,80.84-15.24q31.54,0,66.61,9.84,20.3,5.72,25.81,5.71a20.4,20.4,0,0,0,12.24-3.73q5.18-3.72,6.72-11.82Z"></path><path class="cls-2" d="M459,381.14v60.33q0,17.46,3,22t10.48,7.23q7.5,2.7,28,2.69v5.88H347.43v-5.88q20.73,0,28.12-2.77t10.37-7.23q3-4.44,3-21.9V301.76q0-17.46-3-22t-10.48-7.22q-7.5-2.7-28-2.7V264h139q54.27,0,79.41,5.39t41,19.93q15.88,14.52,15.88,34.05,0,23.82-23.82,39.37-15.21,9.86-42.57,14.77l71.91,72.87q14.12,14.13,20.07,17.62a47.09,47.09,0,0,0,21,5.39v5.88H575.05l-96.39-98.11Zm0-105.57v94.3h12.58q30.64,0,45.87-4.05t23.94-14.61q8.7-10.54,8.71-27.54,0-24.6-16-36.36t-51.5-11.74Z"></path><path class="cls-2" d="M796.29,276.36V364h6q28.46,0,41.25-12.86t16.32-37.94h8.38V425.91h-8.38q-2.64-18.42-11.14-30.17T828.93,380q-11.25-4.05-32.64-4.05v60.64q0,17.79,2.09,21.75t7.83,6.51q5.73,2.55,18.53,2.54h17.87q41.89,0,67.16-14t36.28-42.55h8.16l-13.45,68.43H682.26v-5.88h9.92q13,0,21-3.33a17,17,0,0,0,8.82-7.62q2.41-3.81,2.42-20V300.81q0-14.61-1.1-17.94a16.23,16.23,0,0,0-8.16-8.57q-8.39-4.46-22.94-4.45h-9.92V264H932.6v63.66h-8.39q-6.39-23.34-18-33.5t-32.75-14.92q-12.36-2.87-46.32-2.86Z"></path><path class="cls-2" d="M1180.18,259.06l2.43,71.75h-9q-6.4-27-31.44-43.42A96.8,96.8,0,0,0,1088,271q-22.5,0-35.63,8.65t-13.12,19.93a19.26,19.26,0,0,0,4.63,12.7q6.41,7.45,20.52,14.76,10.36,5.25,47.86,18.58,52.49,18.57,70.8,35.08,18.08,16.51,18.09,37.79,0,27-29.23,46.43t-74.22,19.45a165.44,165.44,0,0,1-26.69-2.06,260.29,260.29,0,0,1-31.54-7.78q-10.59-3.18-17.42-3.18a27.27,27.27,0,0,0-12.13,3.18,25,25,0,0,0-10.37,9.68h-8.16V402.89h8.16q9.71,34.29,37.39,52.31t59.66,18q24.69,0,39.37-9.69T1150.63,441q0-7.62-5.63-14.77t-17.09-13.57q-11.48-6.43-40.59-16.75-40.8-14.44-58.67-24.6t-27.46-22.71A44.44,44.44,0,0,1,991.6,321q0-25.73,26.25-43.82T1084,259.06a153.76,153.76,0,0,1,28.23,2.54,177.57,177.57,0,0,1,25.25,7.06q14.89,5.16,20.85,5.16,5.73,0,9-2.54t6.18-12.22Z"></path><path class="cls-2" d="M1485.81,264v58.26h-7.94q-7.06-20.16-15.66-29t-23.6-14q-8.38-2.87-29.34-2.86H1387V442.42q0,16.51,2.54,20.64t9.93,7.22q7.38,3.09,20.18,3.09h9.92v5.88H1273v-5.88h9.93q13,0,20.95-3.33a18,18,0,0,0,9-7.62q2.43-3.81,2.43-20V276.36H1293.7q-30.23,0-43.9,9.21-19.18,12.85-24.26,36.67h-8.38V264Z"></path><path class="cls-2" d="M242.8,538.75q12.88,0,21,4.87t8.11,12.71a12.61,12.61,0,0,1-4,9.28q-4,4-11.93,6.24a27,27,0,0,1,7.78,4.38,58.94,58.94,0,0,1,8.43,9.35,186.49,186.49,0,0,0,12.42,15.66H264.89a74.5,74.5,0,0,1-5.49-6.58,139.71,139.71,0,0,0-11.11-13.44,24,24,0,0,0-6.79-4.92,18.34,18.34,0,0,0-7.52-1.45h-6.41v26.39H209.93V538.75Zm-4,26.66q6.92,0,10.88-2.37a7.28,7.28,0,0,0,4-6.49,6.87,6.87,0,0,0-3.92-6.42Q245.82,548,238.55,548h-11v17.4Z"></path><path class="cls-2" d="M483.07,538.75v9.44H441.7V564.6h39.61V574H441.7V591.8H484v9.44H424.06V538.75Z"></path><path class="cls-2" d="M677.17,538.75l40.32,62.49H698.87L689.39,586H648.8L640,601.24H621.49l37.64-62.49Zm-23,38.11h29.48l-15.42-24.74Z"></path><path class="cls-2" d="M874.29,538.75v53H918.6v9.44h-62V538.75Z"></path><path class="cls-2" d="M1120,538.75v9.44h-32.42v53h-17.65v-53h-32.41v-9.44Z"></path><path class="cls-2" d="M1277.54,538.75l22.09,20.89L1322,538.75h21l-34.51,31.53v31h-17.64v-31l-34.71-31.44Z"></path></g></svg> 